<svg width="21" height="17" viewBox="0 0 21 17" fill="none" xmlns="http://www.w3.org/2000/svg">
<path d="M14.921 1.69751H1.75012V15.9082H5.41594V11.285H12.4404L15.6454 15.9082H19.7501L16.216 11.2637C17.3137 11.0933 18.1038 10.6884 18.5868 10.0493C19.0696 9.4102 19.3112 8.38747 19.3112 7.02396V5.95867C19.3112 5.14903 19.2235 4.50991 19.0698 4.01989C18.916 3.52987 18.6526 3.10371 18.2795 2.72023C17.8843 2.35804 17.4454 2.10239 16.9185 1.932C16.3916 1.78289 15.7331 1.69751 14.921 1.69751ZM14.3283 8.15323H5.41594V4.82941H14.3283C14.833 4.82941 15.1843 4.91454 15.3599 5.06378C15.5355 5.21288 15.6454 5.48982 15.6454 5.8947V7.08782C15.6454 7.51386 15.5355 7.79079 15.3599 7.9399C15.1843 8.08901 14.8332 8.15299 14.3283 8.15299V8.15323Z" stroke="#FFD479" stroke-width="2" stroke-linecap="round" stroke-linejoin="round"/>
</svg>
