<svg width="24" height="24" viewBox="0 0 24 24" fill="none" xmlns="http://www.w3.org/2000/svg">
<path d="M16.5915 7.53005C16.596 7.53005 16.602 7.53005 16.608 7.53005C16.7648 7.53005 16.9103 7.5788 17.0295 7.6628L17.0273 7.6613C17.1143 7.73705 17.1728 7.84355 17.187 7.96355V7.9658C17.202 8.0573 17.2103 8.1623 17.2103 8.26955C17.2103 8.3183 17.2088 8.3663 17.205 8.4143V8.40755C17.0363 10.1843 16.3043 14.493 15.9323 16.482C15.7748 17.3243 15.465 17.6063 15.165 17.6333C14.5133 17.694 14.0183 17.2028 13.3868 16.7888C12.3983 16.14 11.8395 15.7365 10.8803 15.1043C9.77102 14.3745 10.4903 13.9718 11.1218 13.3163C11.2875 13.1438 14.1608 10.53 14.217 10.293C14.22 10.2788 14.2215 10.263 14.2215 10.2465C14.2215 10.188 14.1998 10.1348 14.1645 10.0943C14.1255 10.0688 14.0768 10.0545 14.0258 10.0545C13.992 10.0545 13.9598 10.0613 13.9298 10.0725L13.9313 10.0718C13.8323 10.0943 12.2533 11.1378 9.19427 13.2023C8.86052 13.4655 8.43902 13.632 7.98002 13.6515H7.97552C7.32527 13.5728 6.73502 13.428 6.17477 13.2218L6.23027 13.2398C5.52677 13.0103 4.96802 12.8895 5.01602 12.501C5.04152 12.299 5.32002 12.0923 5.85152 11.8808C9.12552 10.4543 11.3088 9.51405 12.4013 9.06005C13.6065 8.4203 15.0038 7.8938 16.473 7.55255L16.5908 7.5293L16.5915 7.53005ZM11.9475 0.768799C5.72102 0.783799 0.678772 5.83505 0.678772 12.0638C0.678772 18.3015 5.73527 23.3588 11.9738 23.3588C18.2123 23.3588 23.2688 18.3023 23.2688 12.0638C23.2688 5.83505 18.2265 0.783799 12.0015 0.768799H12C11.9825 0.768799 11.965 0.768799 11.9475 0.768799Z" fill="#FFD479"/>
</svg>
